Coordinates
version=1
nRows=11
nColumns=63
inDegrees=yes

Units are S.I. units (second, meters, Newtons, ...)
If the header above contains a line with 'inDegrees', this indicates whether rotational values are in degrees (yes) or radians (no).

endheader
time	pelvis_tilt	pelvis_list	pelvis_rotation	pelvis_tx	pelvis_ty	pelvis_tz	hip_flexion_r	hip_adduction_r	hip_rotation_r	knee_angle_r	knee_angle_r_beta	ankle_angle_r	subtalar_angle_r	mtp_angle_r	hip_flexion_l	hip_adduction_l	hip_rotation_l	knee_angle_l	knee_angle_l_beta	ankle_angle_l	subtalar_angle_l	mtp_angle_l	L5_S1_Flex_Ext	L5_S1_Lat_Bending	L5_S1_axial_rotation	L4_L5_Flex_Ext	L4_L5_Lat_Bending	L4_L5_axial_rotation	L3_L4_Flex_Ext	L3_L4_Lat_Bending	L3_L4_axial_rotation	L2_L3_Flex_Ext	L2_L3_Lat_Bending	L2_L3_axial_rotation	L1_L2_Flex_Ext	L1_L2_Lat_Bending	L1_L2_axial_rotation	L1_T12_Flex_Ext	L1_T12_Lat_Bending	L1_T12_axial_rotation	Abs_r3	Abs_r2	Abs_r1	Abs_t1	Abs_t2	neck_flexion	neck_bending	neck_rotation	arm_flex_r	arm_add_r	arm_rot_r	elbow_flex_r	pro_sup_r	wrist_flex_r	wrist_dev_r	arm_flex_l	arm_add_l	arm_rot_l	elbow_flex_l	pro_sup_l	wrist_flex_l	wrist_dev_l
3.450000	1.433838	-9.721728	87.229558	0.220898	0.771936	0.709261	5.925677	-0.959585	-7.421112	10.463959	0.182631	36.526216	15.966260	0.000000	8.072286	0.383167	-6.178848	12.943040	0.225899	38.136537	-5.162822	0.000000	-0.189486	-0.005173	1.906054	-0.351895	-0.006880	2.025183	-0.311307	-0.012577	2.025183	-0.216564	-0.012577	1.667798	-0.175957	-0.010548	1.548669	-0.108272	-0.008012	1.429541	-1.353480	-0.058513	10.600902	0.000000	0.000000	22.021417	1.219367	13.389154	-0.430172	-9.456128	22.418530	29.879713	84.443724	-8.142120	2.929005	19.800071	-9.094108	110.272534	21.768567	41.705773	-21.303681	-6.538690
3.466667	1.434022	-9.680438	86.950637	0.221419	0.771944	0.708913	5.810975	-0.918308	-7.112921	10.346848	0.180587	36.393536	15.870264	0.000000	7.869426	0.358706	-6.465010	12.826955	0.223873	38.049045	-5.254759	0.000000	-0.194278	-0.005608	1.973267	-0.360794	-0.007458	2.096596	-0.319179	-0.013634	2.096596	-0.222040	-0.013634	1.726609	-0.180407	-0.011435	1.603279	-0.111010	-0.008686	1.479950	-1.387709	-0.063434	10.974719	0.000000	0.000000	22.357444	0.987778	13.010733	-0.520193	-9.449018	22.331191	29.929916	84.392713	-8.160523	2.909984	19.808208	-9.132459	110.180239	22.039064	41.835314	-21.854687	-6.409387
3.483333	1.413221	-9.632693	86.578223	0.222076	0.771958	0.708429	5.697941	-0.886947	-6.682829	10.225184	0.178463	36.280811	15.790575	0.000000	7.631681	0.349764	-6.855749	12.667692	0.221093	37.998270	-5.257158	0.000000	-0.196745	-0.008556	2.063795	-0.365375	-0.011379	2.192782	-0.323232	-0.020803	2.192782	-0.224860	-0.020803	1.805821	-0.182697	-0.017447	1.676833	-0.112420	-0.013253	1.547846	-1.405329	-0.096786	11.478208	0.000000	0.000000	22.636506	0.801956	12.680446	-0.665495	-9.410291	22.104375	29.983894	84.476282	-8.190271	2.884525	19.789468	-9.184149	109.981539	22.323976	42.004777	-22.452388	-6.384655
3.500000	1.363918	-9.559955	86.082902	0.222886	0.771999	0.707805	5.566486	-0.875121	-6.098425	10.093059	0.176157	36.190972	15.730544	0.000000	7.333363	0.369000	-7.353044	12.452131	0.217331	37.967564	-5.217049	0.000000	-0.199208	-0.014654	2.182124	-0.369949	-0.019490	2.318507	-0.327278	-0.035631	2.318507	-0.227674	-0.035631	1.909359	-0.184984	-0.029883	1.772976	-0.113827	-0.022700	1.636593	-1.422920	-0.165773	12.136321	0.000000	0.000000	22.838882	0.682107	12.437674	-0.875786	-9.334210	21.654312	30.076019	84.733811	-8.170244	2.946019	19.747071	-9.254047	109.641231	22.643913	42.210687	-23.097081	-6.416094
3.516667	1.296733	-9.464890	85.560675	0.223721	0.772069	0.707043	5.406929	-0.885443	-5.527981	9.955848	0.173762	36.136758	15.760533	0.000000	6.991505	0.414588	-7.843872	12.197132	0.212880	37.947298	-5.173477	0.000000	-0.200657	-0.023101	2.309561	-0.372640	-0.030724	2.453908	-0.329659	-0.056167	2.453908	-0.229331	-0.056167	2.020866	-0.186330	-0.047107	1.876518	-0.114655	-0.035783	1.732171	-1.433272	-0.261322	12.845085	0.000000	0.000000	22.935164	0.628285	12.250037	-1.088036	-9.273442	21.364255	30.129669	84.784212	-8.171891	2.953486	19.696974	-9.338544	109.257780	23.009285	42.471591	-23.866926	-6.441180
3.533333	1.197314	-9.346848	84.937528	0.224669	0.772168	0.706179	5.235176	-0.926418	-4.855315	9.823134	0.171446	36.110586	15.818809	0.000000	6.606707	0.496153	-8.401767	11.901138	0.207714	37.927787	-5.144883	0.000000	-0.201514	-0.035424	2.459053	-0.374232	-0.047113	2.612744	-0.331068	-0.086129	2.612744	-0.230311	-0.086129	2.151671	-0.187126	-0.072236	1.997981	-0.115145	-0.054871	1.844290	-1.439396	-0.400718	13.676515	0.000000	0.000000	22.917035	0.659102	12.152504	-1.318622	-9.209380	21.147038	30.171467	84.764150	-8.272116	2.937068	19.705039	-9.409915	109.339464	23.391698	42.199218	-24.746275	-6.645500
3.550000	1.068996	-9.206134	84.220505	0.225713	0.772293	0.705235	5.053216	-0.999263	-4.102475	9.702937	0.169348	36.110725	15.903810	0.000000	6.183578	0.612468	-9.033988	11.567056	0.201883	37.910578	-5.114027	0.000000	-0.202689	-0.051449	2.629044	-0.376414	-0.068427	2.793360	-0.332998	-0.125093	2.793360	-0.231654	-0.125093	2.300414	-0.188217	-0.104915	2.136099	-0.115817	-0.079694	1.971783	-1.447789	-0.582001	14.621956	0.000000	0.000000	22.806567	0.748500	12.101918	-1.575957	-9.128948	20.874662	30.219085	84.753102	-8.359591	2.944646	19.725306	-9.480944	109.448739	23.760146	41.919088	-25.567689	-6.911209
3.566667	0.911564	-9.049282	83.441848	0.226811	0.772439	0.704226	4.862201	-1.107492	-3.320139	9.590620	0.167388	36.132929	16.022820	0.000000	5.735892	0.764486	-9.704210	11.199513	0.195468	37.893890	-5.083403	0.000000	-0.204024	-0.071065	2.811603	-0.378894	-0.094516	2.987328	-0.335192	-0.172787	2.987328	-0.233180	-0.172787	2.460153	-0.189457	-0.144916	2.284428	-0.116580	-0.110080	2.108702	-1.457326	-0.803901	15.637293	0.000000	0.000000	22.616364	0.877291	12.081609	-1.849423	-9.033045	20.569720	30.266583	84.740764	-8.437240	2.964242	19.756083	-9.549696	109.525857	24.098473	41.795972	-26.249577	-7.151677
3.583333	0.727462	-8.880723	82.616511	0.227957	0.772599	0.703190	4.666652	-1.248379	-2.515912	9.486561	0.165572	36.164590	16.162633	0.000000	5.280549	0.947137	-10.423946	10.816477	0.188783	37.889342	-5.024379	0.000000	-0.206082	-0.093930	2.998207	-0.382716	-0.124927	3.185595	-0.338573	-0.228381	3.185595	-0.235532	-0.228381	2.623431	-0.191368	-0.191542	2.436043	-0.117755	-0.145497	2.248655	-1.472026	-1.062554	16.675128	0.000000	0.000000	22.374641	1.034773	12.105209	-2.121859	-8.917337	20.234950	30.317100	84.738469	-8.491093	3.010967	19.782234	-9.623243	109.497061	24.394837	41.921816	-26.753884	-7.357431
3.600000	0.525013	-8.706262	81.787961	0.229085	0.772770	0.702156	4.469389	-1.417944	-1.745001	9.389918	0.163885	36.203658	16.330759	0.000000	4.832037	1.163017	-11.054082	10.422980	0.181915	37.866919	-5.066492	0.000000	-0.208914	-0.118715	3.178572	-0.387974	-0.157891	3.377233	-0.343224	-0.288643	3.377233	-0.238767	-0.288643	2.781251	-0.193997	-0.242083	2.582590	-0.119373	-0.183889	2.383929	-1.492250	-1.342925	17.678264	0.000000	0.000000	22.104489	1.196487	12.169319	-2.377197	-8.790679	19.904787	30.359798	84.735886	-8.504524	3.082811	19.815108	-9.687175	109.424044	24.628997	42.292794	-27.014695	-7.472742
3.616667	0.304545	-8.532064	80.965231	0.230205	0.772946	0.701161	4.279655	-1.611710	-0.995051	9.301905	0.162349	36.248231	16.501819	0.000000	4.404427	1.399077	-11.644740	10.033746	0.175122	37.838617	-5.141634	0.000000	-0.212727	-0.145276	3.345652	-0.395055	-0.193217	3.554755	-0.349488	-0.353224	3.554755	-0.243125	-0.353224	2.927446	-0.197538	-0.296247	2.718342	-0.121552	-0.225033	2.509239	-1.519485	-1.643392	18.607513	0.000000	0.000000	21.835357	1.357207	12.293832	-2.590918	-8.652325	19.630529	30.379043	84.714738	-8.491343	3.169390	19.838785	-9.756781	109.255808	24.811715	42.926533	-27.055755	-7.500391
